<svg xmlns="http://www.w3.org/2000/svg" xmlns:xlink="http://www.w3.org/1999/xlink"><defs><style>
    .sprite-symbol-usage {display: none;}
    .sprite-symbol-usage:target {display: inline;}
  </style><symbol viewBox="0 0 20 20" id="arrow_45deg"><path fill="#46465b" d="m5.06 17.06-2.12-2.12 9.44-9.44H5v-3h12.5V15h-3V7.62l-9.44 9.44z" /></symbol><symbol viewBox="0 0 20 13" id="arrow_down"><path d="m10 13 9.09-9.09-3-3L10 6.94 3.94.88l-3 3Z" fill="curentColor" /></symbol><symbol viewBox="0 0 22 18.18" id="arrow_left"><path d="m0 9.09 9.09 9.09 3.03-3.03-6.06-6.06 6.06-6.06L9.09 0 0 9.09Z" fill="currentColor" /><path d="M6 7.09h16v4H6z" /></symbol><symbol viewBox="0 0 22 18.18" id="arrow_r"><path d="m22 9.09-9.09 9.09-3-3 6.06-6.06L9.88 3l3-3Z" /><path d="M0 7.09h16v4H0z" /></symbol><symbol viewBox="0 0 22 18.18" id="arrow_right"><path d="M12.91 18.18 22 9.09 12.91 0 9.88 3.03l4.06 4.06H0v4h13.94l-4.06 4.06 3.03 3.03Z" fill="currentColor" fill-rule="evenodd" /></symbol><symbol viewBox="0 0 18.18 12.12" id="arrow_top"><path d="M9.09 0 0 9.09l3.03 3.03 6.06-6.06 6.06 6.06 3.03-3.03L9.09 0Z" fill="currentColor" /></symbol><symbol viewBox="0 0 1077.35 1077.35" id="arrow_top_r"><path d="M70.15 1077.35 0 1007.21 907.94 99.26H35.07V0h1042.28v1042.28h-99.26V169.41L70.15 1077.35z" /></symbol><symbol viewBox="0 0 18.13 18" fill="currentColor" id="bag"><path class="normal_state" fill-rule="evenodd" clip-rule="evenodd" d="M18.13 18H0L1.13 0H17Zm-16-2H16l-.87-14H3Zm6.93-7a4 4 0 0 1-4-4V4h2v1a2 2 0 1 0 4 0V4h2v1a4 4 0 0 1-4 4Z" /></symbol><symbol viewBox="0 0 18.13 18" fill="#161833" id="bag-active"><path class="active_state" d="M1.13 0H17l1.13 18H0Zm5.93 5V4h-2v1a4 4 0 0 0 8 0V4h-2v1a2 2 0 1 1-4 0Z" fill-rule="evenodd" /></symbol><symbol viewBox="0 0 24 24" fill="none" id="bathroom"><path d="M12 3v4" stroke="#46465B" stroke-width="2" stroke-linejoin="round" /><path d="M21 14H3a9 9 0 0 1 18 0ZM7 16h2v2H7zM5 20h2v2H5zM11 16h2v2h-2zM9 20h2v2H9zM13 20h2v2h-2zM15 16h2v2h-2zM17 20h2v2h-2z" fill="currentColor" /></symbol><symbol viewBox="0 0 25 24" fill="none" id="bedroom"><path fill-rule="evenodd" clip-rule="evenodd" d="M2 5v10h11V6h7.2c1.68 0 2.52 0 3.162.327a3 3 0 0 1 1.311 1.311C25 8.28 25 9.12 25 10.8V20h-2v-2H2v2H0V5h2Zm9 4.5a3.5 3.5 0 1 1-7 0 3.5 3.5 0 0 1 7 0Z" fill="currentColor" /></symbol><symbol viewBox="0 0 24 24" id="calendar"><path d="M13 19H3.76V9h16v3c.76 0 .81.02 2 0V6c0-1.1-.9-2-2-2h-1V2h-2v2h-10V2h-2v2h-1c-1.1 0-2 .9-2 2v13c0 1.1.9 2 2 2H13v-2Z" /><path d="M17 14h2v6h-2z" /><path d="M15 16h6v2h-6z" /></symbol><symbol viewBox="0 0 24 24" id="cart"><path d="M21.06 21H2.94L4.06 3h15.88l1.12 18Zm-16-2h13.87l-.88-14H5.94l-.88 14ZM12 12c-2.21 0-4-1.79-4-4V7h2v1c0 1.1.9 2 2 2s2-.9 2-2V7h2v1c0 2.21-1.79 4-4 4Z" /></symbol><symbol viewBox="0 0 24 24" id="cart_2"><path d="M4.06 3h15.88l1.12 18H2.93L4.06 3ZM10 8V7H8v1c0 2.21 1.79 4 4 4s4-1.79 4-4V7h-2v1c0 1.1-.9 2-2 2s-2-.9-2-2Z" fill-rule="evenodd" /></symbol><symbol viewBox="0 0 24 24" fill="none" id="chair"><path fill-rule="evenodd" clip-rule="evenodd" d="M4 2h16v9h2v2h-2.707l-5.445 3.5 6.533 4.2-1.082 1.682-7.3-4.693-7.3 4.693L3.617 20.7l6.533-4.2L4.705 13H2v-2h2V2Zm4.404 11 3.595 2.311L15.594 13h-7.19Z" fill="currentColor" /></symbol><symbol viewBox="0 0 24 24" fill="none" id="dining"><g fill="currentColor"><path d="M20.125 14.126c.692.691 1.038 1.037 1.286 1.44.219.359.38.749.479 1.157.11.46.11.95.11 1.928V21h-2v-3a1 1 0 1 0-2 0v3h-2v-3a1 1 0 1 0-2 0v3h-2v-2.349c0-.978 0-1.468.11-1.928.099-.408.26-.798.48-1.156.247-.404.593-.75 1.284-1.441l.72-.72c.519-.519.778-.778.964-1.081.164-.269.286-.561.36-.867.082-.346.082-.713.082-1.446V3h2v7.012c0 .733 0 1.1.083 1.446.073.306.195.598.36.867.185.303.444.562.963 1.08l.72.72ZM10.55 11.45A4.95 4.95 0 0 0 7.05 3h-.1a4.95 4.95 0 0 0-3.5 8.45L4.8 12.8c.316.316.474.474.603.647a3 3 0 0 1 .566 1.366c.031.214.031.437.031.884V21h2v-5.303c0-.447 0-.67.03-.884a3 3 0 0 1 .567-1.366c.13-.173.287-.331.603-.647l1.35-1.35Z" /></g></symbol><symbol fill="none" viewBox="0 0 24 24" id="facebook"><path d="M9.265 23.999v-9.187H6V11.01h3.265V8.116C9.265 4.82 11.185 3 14.122 3 15.528 3 17 3.257 17 3.257v3.236h-1.622c-1.598 0-2.096 1.013-2.096 2.053v2.465h3.566l-.57 3.802h-2.996V24l-4.017-.001Z" fill="currentColor" /></symbol><symbol viewBox="0 0 24 24" fill="none" id="ft"><path fill-rule="evenodd" clip-rule="evenodd" d="M3.866 13.773 1.04 16.6l6.364 6.364L22.959 7.407l-6.364-6.364-2.828 2.829 2.12 2.12-1.414 1.414-2.12-2.12-2.83 2.83 2.827 2.828-1.414 1.414L8.108 9.53 5.28 12.358l2.12 2.12-1.413 1.415-2.12-2.12Z" fill="currentColor" /></symbol><symbol fill="none" viewBox="0 0 24 24" id="garage"><path fill-rule="evenodd" clip-rule="evenodd" d="M2 7v14h20V7L12 4 2 7Z" fill="currentColor" /><path fill="#FAFAFC" d="M4 12h16v2H4zM4 16h16v2H4z" /></symbol><symbol viewBox="0 0 65 63.34" fill="currentcolor" id="home"><path d="M2.5 33.34a2.5 2.5 0 0 1-1.77-4.26L27.9 1.9a6.52 6.52 0 0 1 9.2 0l27.17 27.18a2.5 2.5 0 1 1-3.54 3.53L33.56 5.44a1.53 1.53 0 0 0-2.12 0L4.27 32.61a2.49 2.49 0 0 1-1.77.73ZM51.5 63.34h-38a6.51 6.51 0 0 1-6.5-6.5v-20a2.5 2.5 0 0 1 5 0v20a1.5 1.5 0 0 0 1.5 1.5h38a1.5 1.5 0 0 0 1.5-1.5v-20a2.5 2.5 0 0 1 5 0v20a6.51 6.51 0 0 1-6.5 6.5Z" /><path d="M50.5 21.34a2.5 2.5 0 0 1-2.5-2.5v-8a2.5 2.5 0 0 1 5 0v8a2.5 2.5 0 0 1-2.5 2.5Z" /></symbol><symbol viewBox="0 0 22 22" id="instagram"><path d="M11 0C8 0 7.64 0 6.47.07A8 8 0 0 0 3.8.58a5.21 5.21 0 0 0-1.95 1.27A5.21 5.21 0 0 0 .58 3.8a8 8 0 0 0-.51 2.67C0 7.64 0 8 0 11s0 3.36.07 4.53a8 8 0 0 0 .51 2.67 5.21 5.21 0 0 0 1.27 1.95 5.34 5.34 0 0 0 1.95 1.27 8 8 0 0 0 2.67.51C7.64 22 8 22 11 22s3.36 0 4.53-.07a8 8 0 0 0 2.67-.51 5.63 5.63 0 0 0 3.22-3.22 8 8 0 0 0 .51-2.67C22 14.36 22 14 22 11s0-3.36-.07-4.53a8 8 0 0 0-.51-2.67 5.34 5.34 0 0 0-1.27-1.95A5.21 5.21 0 0 0 18.2.58a8 8 0 0 0-2.67-.51C14.36 0 14 0 11 0Zm0 2c2.94 0 3.29 0 4.45.07a5.88 5.88 0 0 1 2 .38 3.2 3.2 0 0 1 1.26.82 3.34 3.34 0 0 1 .83 1.26 5.94 5.94 0 0 1 .37 2C20 7.71 20 8.06 20 11s0 3.29-.07 4.45a6.06 6.06 0 0 1-.39 2 3.69 3.69 0 0 1-2.08 2.09 6 6 0 0 1-2.05.37c-1.15.09-1.5.09-4.41.09H6.52a6.08 6.08 0 0 1-2-.39 3.35 3.35 0 0 1-1.27-.82 3.32 3.32 0 0 1-.82-1.26 6.41 6.41 0 0 1-.43-2.1c0-1.16-.05-1.52-.05-4.44S2 7.7 2 6.53a6.41 6.41 0 0 1 .39-2 3.24 3.24 0 0 1 .81-1.31 3.38 3.38 0 0 1 1.27-.83A6 6 0 0 1 6.5 2H11Zm0 3.37A5.65 5.65 0 1 0 16.65 11 5.65 5.65 0 0 0 11 5.35Zm0 9.32A3.67 3.67 0 1 1 14.67 11 3.67 3.67 0 0 1 11 14.67Zm7.19-9.54a1.32 1.32 0 1 1-1.32-1.32 1.32 1.32 0 0 1 1.32 1.3Z" fill="currentColor" /></symbol><symbol viewBox="0 0 48 39" id="iso"><g clip-path="#clippath"><path d="M47.27 15.37c-.46-1.2-1.4-2.27-2.54-3.04-3.3-2.09-8.32-2.24-11.72-.35-1.85.94-3.07 2.81-3.45 4.74-.69 3.16-.51 6.92 1.93 9.29 2.84 2.49 6.98 3.04 10.65 2.02.17-.03.73-.17 1.11-.38l.11-.05a7.506 7.506 0 0 0 3.04-2.29c1.88-2.74 2.01-6.85.86-9.94Zm-5.99 7.1c-.13.6-.53 1.22-1.17 1.45-1.01.45-2.38.32-3.32-.2-.79-.55-.89-1.47-.99-2.34-.08-1.72-.2-3.54.28-5.11.38-.97 1.42-1.22 2.36-1.3.99 0 1.95.15 2.56.95.38.57.36 1.32.43 1.99-.03 1.42.1 3.11-.15 4.56Zm-30.06 1.55c-.84-.05-1.78.02-2.59-.08l.03-8.75.05-.07 2.51-.02c.03-1.42.05-2.94-.03-4.24l-9.56-.03-1.57.03c-.03 1.32-.03 2.86 0 4.21.86.03 1.67 0 2.51.08v8.47l-.02.35-2.51.05c-.05 1.37-.05 2.74 0 4.11h11.18v-4.11ZM39.37 30c-1.06 1.52-2.41 2.99-3.88 4.13-.05.08-.21.05-.25-.02-.64-.4-1.32-.72-1.93-1.12.81-.97 1.6-1.94 2.21-3.02h-.79c-.63.93-1.29 1.9-2.13 2.72-1.12-.45-2.13-.85-3.27-1.15l-.13-.09c.18-.5.51-.98.61-1.47h-.68l-.68 1.35c-1.49-.32-3.14-.5-4.67-.6-.08-.22.02-.55-.08-.75h-.66c-.05.3.08.53-.08.77-1.57.07-3.09.25-4.56.55l-.69-1.32c-.25 0-.53-.05-.71.03l.63 1.47-.08.07c-1.14.33-2.25.72-3.35 1.17l-.1-.05c-.71-.77-1.4-1.62-1.96-2.46-.13-.43-.63-.18-.91-.23.61 1.1 1.42 2.07 2.23 3.07-.68.4-1.37.85-2.08 1.17-1.55-1.18-2.9-2.6-4.01-4.21-.3-.05-.51-.03-.81 0 1.83 2.84 4.67 5.33 7.64 6.8 0 0 0-.02.03-.02.02 0 .07.05.02.07 2.01.97 4.14 1.67 6.39 1.97 7.79 1.02 15.22-2.29 19.53-8.82-.27-.03-.54-.03-.81 0ZM28.8 32.24l.07-.05c1.09.25 2.13.6 3.1 1.07-.81.92-1.85 1.72-2.82 2.39-.58.35-1.17.73-1.78 1.02l-1.09-.47.07-.17c.91-1.22 1.73-2.47 2.44-3.79Zm-5-.75c1.45.03 2.89.18 4.24.5l.03.08c-.71 1.34-1.6 2.64-2.56 3.86-.43.05-.84-.12-1.27-.15l-.43-.05c-.05-1.47-.08-2.77 0-4.24Zm-4.89.45c1.32-.25 2.69-.45 4.11-.45l.03 4.22c-.53.12-1.12.12-1.62.25-1.04-1.22-1.9-2.55-2.64-3.92l.13-.1Zm-4.09 1.35c.99-.47 2.03-.83 3.09-1.1l.1.03c.73 1.37 1.65 2.67 2.56 3.96-.35.2-.79.32-1.14.52-1.72-.85-3.28-1.98-4.62-3.34v-.07Zm3.27 4.26c-2.13-.55-4.11-1.5-5.94-2.79v-.08c.61-.37 1.22-.77 1.88-1.05 1.45 1.42 2.94 2.5 4.57 3.51-.13.15-.33.3-.51.4Zm9.41.32c-2.69.58-5.68.6-8.37-.05-.05-.12.13-.15.2-.22 2.36-1.52 6.04-1.52 8.35.12.08.15-.13.1-.18.15Zm2.44-.7-1.19.37c-.2-.1-.38-.25-.56-.4l.05-.08c1.62-.94 3.09-2.09 4.49-3.46.68.27 1.34.65 1.96 1.07-1.42 1.13-3.07 1.87-4.75 2.49ZM7.34 8.94c.63-.87 1.31-1.69 2.05-2.47.66-.62 1.27-1.22 1.98-1.67.66.42 1.39.78 2.03 1.17-.79.97-1.6 1.94-2.18 2.99.18.08.51.05.76 0 .63-.92 1.32-1.84 2.13-2.66 1.09.4 2.15.82 3.27 1.12l.1.1-.63 1.44c.28.05.46.03.73 0 .23-.42.4-.89.66-1.32 1.47.33 3.02.5 4.59.55.2.18.05.55.13.77h.68c.07-.24-.03-.52.07-.74 1.47-.08 3.02-.23 4.44-.58l.12.03.69 1.29c.23 0 .53.05.71-.05l-.64-1.44.05-.05c1.16-.3 2.26-.75 3.37-1.19.79.82 1.52 1.79 2.18 2.74.28 0 .56.03.76-.05-.31-.56-.68-1.08-1.09-1.57-.34-.48-.71-.93-1.12-1.34v-.13l1.78-1.02.26-.1c1.54 1.17 2.9 2.57 4.01 4.16.3 0 .56.1.81-.02A19.985 19.985 0 0 0 25 .07l-.03.05-.05-.05c-.68-.07-1.52-.1-2.26-.03-.28-.02-.61 0-.94.03-6.09.47-11.69 3.59-15.19 8.89.25-.02.56.08.81-.02Zm10.53-2.19-.1.02c-1.04-.27-2.06-.6-3.02-1.02l.05-.15c1.4-1.32 2.87-2.42 4.49-3.26.38.15.76.27 1.14.45l-.07.19c-.97 1.2-1.72 2.49-2.48 3.77Zm5.05.67c-.71.1-1.34-.02-2.06-.08-.68-.1-1.55-.17-2.23-.4.74-1.36 1.6-2.69 2.64-3.9l1.62.22c.08 1.29.02 2.79.02 4.16Zm.79.03c-.05-1.32-.02-2.79 0-4.16.51-.07 1.06-.15 1.57-.22.99 1.24 1.96 2.52 2.62 3.88-1.37.33-2.78.5-4.19.5ZM31.8 5.7c-.99.42-2.01.82-3.1 1.05-.79-1.32-1.65-2.64-2.61-3.92.36-.2.79-.34 1.17-.54 1.65.82 3.25 1.99 4.59 3.33l-.05.08Zm-3.25-4.26c2.13.55 4.13 1.49 5.96 2.79l-.05.1-1.75.97h-.13c-1.34-1.34-2.91-2.51-4.51-3.44.05-.17.31-.3.48-.42Zm-1.01-.25v.05c-2.21 1.59-5.78 1.74-8.12.27-.13-.1-.38-.15-.41-.32 2.69-.62 5.86-.67 8.52 0ZM12.07 4.28c1.6-1.17 3.37-2.04 5.25-2.64.08-.08.13-.15.23-.15v.05c.2.05.36-.18.53-.03.15.13.33.23.46.35-1.57.97-3.12 2.12-4.54 3.51-.68-.24-1.32-.62-1.93-1.04v-.05Zm10.88 19.93c-2.38.65-4.97.15-6.7-1.64-.2-.25-.33-.55-.53-.79l-3.42.02c-.05 2.02-.08 4.34 0 6.33l3.8-.02.05-1.2c.43.2.86.45 1.3.67 2.64 1.1 6.03 1.35 8.65 0 1.9-1.04 2.92-3.06 2.64-5.23-.28-2.12-2.31-4.03-4.36-4.56l-6.14-1.77-.45-.23c-.2-.17-.33-.4-.28-.67.48-.82 1.6-.57 2.44-.55 1.78.25 3.6.85 4.64 2.47 1.11 0 2.41.02 3.62-.03.05-2.04-.02-3.84-.05-5.9-1.14-.03-2.54-.03-3.68.03-.05.3.05.72-.08 1.02l-1.17-.62c-2.79-1.17-6.7-1.29-9.23.53-1.65 1.19-2.16 3.34-1.72 5.23.33 1.79 2.05 3.11 3.7 3.73 2.26.8 4.61 1.37 6.9 2.14.23.1.53.33.48.6 0 .22-.23.35-.41.44Z" fill="currentColor" /></g></symbol><symbol viewBox="0 0 24 24" fill="none" id="kitchen"><path fill-rule="evenodd" clip-rule="evenodd" d="M13 4h-2v1.055C6.5 5.552 3 9.367 3 14v2h18v-2c0-4.633-3.5-8.448-8-8.945V4ZM3 18v2h18v-2H3Z" fill="currentCOlor" /></symbol><symbol viewBox="0 0 28 28" id="left"><path d="m12.09 4.91 3.03 3.03L9.06 14l6.06 6.06-3.03 3.03L3 14l9.09-9.09Z" /><path d="M9 12h16v4H9z" /></symbol><symbol viewBox="0 0 28 28" id="left_mini"><path d="m8 14 9.09 9.09 3.03-3.03L14.06 14l6.06-6.06-3.03-3.03L8 14Z" /></symbol><symbol viewBox="0 0 26.47 26.26" id="link_icon"><path d="m24.24 12.86-2.99 2.99c-.51.51-1.35.51-1.86 0s-.51-1.35 0-1.86L22.38 11c.94-.94 1.46-2.18 1.46-3.5 0-1.24-.45-2.42-1.26-3.33-.86-.95-2.07-1.5-3.43-1.53H19c-1.46 0-2.87.58-3.9 1.61l-2.73 2.73a1.322 1.322 0 0 1-2.25-.93c0-.35.14-.68.39-.93l2.73-2.73C14.8.81 16.99-.05 19.21 0c2.09.06 3.98.91 5.32 2.4a7.6 7.6 0 0 1 1.94 5.09c0 2.02-.79 3.93-2.23 5.37ZM15.95 21.15l-2.74 2.74a8.143 8.143 0 0 1-5.97 2.37c-2.08-.06-3.97-.91-5.31-2.41A7.615 7.615 0 0 1 0 18.77c-.02-2.02.77-3.93 2.22-5.38l2.99-2.99c.25-.25.58-.39.93-.39s.68.14.93.39.39.58.39.93-.14.68-.39.93l-2.99 2.99c-.94.94-1.46 2.19-1.44 3.5 0 1.25.45 2.43 1.26 3.34.85.95 2.07 1.5 3.42 1.53 1.49.02 2.97-.54 4.03-1.6l2.74-2.74c.51-.51 1.35-.51 1.86 0s.51 1.35 0 1.86Z" fill="currentColor" /><path d="m7.35 17.15 9.9-9.9c.26-.26.59-.38.93-.38s.67.13.93.38c.51.51.51 1.35 0 1.86l-9.9 9.9c-.5.5-1.36.5-1.86 0-.25-.25-.39-.58-.39-.93s.14-.68.39-.93Z" fill="currentColor" /></symbol><symbol viewBox="0 0 17.17 17.15" id="linkedin"><path d="M17.17 17.15h-3.55v-5.57c0-1.33 0-3-1.85-3S9.63 10 9.63 11.48v5.67H6.08V5.7h3.41v1.56a3.73 3.73 0 0 1 3.37-1.85c3.6 0 4.26 2.37 4.26 5.45ZM2.06 4.13a2.07 2.07 0 1 1 2.07-2.07 2.07 2.07 0 0 1-2.07 2.07Zm1.79 13H.28V5.7h3.57Z" fill="currentColor" /></symbol><symbol viewBox="0 0 24 24" fill="none" id="living"><path fill-rule="evenodd" clip-rule="evenodd" d="m7 21 1-2H6v2h1Zm11 0v-2h-2l1 2h1ZM5.886 5.477c.04-.52.06-.781.175-.978a1 1 0 0 1 .432-.4C6.698 4 6.959 4 7.482 4h9.036c.523 0 .784 0 .99.099a1 1 0 0 1 .431.4c.114.197.135.457.175.978l.544 7.082a15 15 0 0 0-13.316 0l.544-7.082Zm-.674 8.766L5 17h1v2h12v-2h1l-.212-2.757-.288.499a13 13 0 0 0-13 0l-.288-.499Z" fill="currentColor" /><path fill-rule="evenodd" clip-rule="evenodd" d="M4.309 11H6l1 8h-.891c-.4 0-.6 0-.772-.065a1 1 0 0 1-.394-.274c-.122-.138-.192-.325-.332-.7l-1.8-4.8c-.273-.726-.409-1.089-.344-1.38a1 1 0 0 1 .429-.618C3.146 11 3.533 11 4.309 11Zm15.382 0h-1.69l-1 8h.89c.4 0 .6 0 .772-.065a1 1 0 0 0 .394-.274c.122-.138.192-.325.332-.7l1.8-4.8c.273-.726.409-1.089.344-1.38a1 1 0 0 0-.429-.618C20.854 11 20.467 11 19.691 11Z" fill="currentColor" /></symbol><symbol fill="none" viewBox="0 0 24 24" id="pinterest"><path d="M12 1C5.925 1 1 5.925 1 12c0 4.66 2.9 8.644 6.991 10.247-.096-.87-.183-2.21.039-3.16.2-.858 1.29-5.467 1.29-5.467s-.33-.659-.33-1.633c0-1.53.887-2.671 1.99-2.671.94 0 1.393.704 1.393 1.549 0 .944-.601 2.355-.912 3.662-.259 1.095.55 1.988 1.63 1.988 1.955 0 3.457-2.061 3.457-5.037 0-2.634-1.892-4.475-4.594-4.475-3.13 0-4.967 2.347-4.967 4.774 0 .945.364 1.959.818 2.51a.33.33 0 0 1 .076.315c-.083.348-.269 1.095-.305 1.248-.048.201-.16.244-.368.147-1.374-.64-2.233-2.648-2.233-4.261 0-3.47 2.521-6.657 7.268-6.657 3.816 0 6.782 2.719 6.782 6.353 0 3.791-2.39 6.842-5.708 6.842-1.115 0-2.163-.58-2.521-1.263 0 0-.552 2.1-.686 2.615-.248.955-.919 2.153-1.367 2.883 1.03.32 2.123.491 3.257.491 6.075 0 11-4.925 11-11S18.075 1 12 1Z" fill="currentColor" /></symbol><symbol viewBox="0 0 116 116" id="play"><path d="M80.86 58 44 79V37l36.86 21Z" /><circle cx="58" cy="58" r="57.5" fill="none" stroke="currentColor" /></symbol><symbol viewBox="0 0 18 18" id="plyr-airplay"><path d="M16 1H2a1 1 0 0 0-1 1v10a1 1 0 0 0 1 1h3v-2H3V3h12v8h-2v2h3a1 1 0 0 0 1-1V2a1 1 0 0 0-1-1Z" /><path d="M4 17h10l-5-6z" /></symbol><symbol viewBox="0 0 18 18" id="plyr-captions-off"><path d="M1 1c-.6 0-1 .4-1 1v11c0 .6.4 1 1 1h4.6l2.7 2.7c.2.2.4.3.7.3.3 0 .5-.1.7-.3l2.7-2.7H17c.6 0 1-.4 1-1V2c0-.6-.4-1-1-1H1Zm4.52 10.15c1.99 0 3.01-1.32 3.28-2.41l-1.29-.39c-.19.66-.78 1.45-1.99 1.45-1.14 0-2.2-.83-2.2-2.34 0-1.61 1.12-2.37 2.18-2.37 1.23 0 1.78.75 1.95 1.43l1.3-.41C8.47 4.96 7.46 3.76 5.5 3.76c-1.9 0-3.61 1.44-3.61 3.7 0 2.26 1.65 3.69 3.63 3.69Zm7.57 0c1.99 0 3.01-1.32 3.28-2.41l-1.29-.39c-.19.66-.78 1.45-1.99 1.45-1.14 0-2.2-.83-2.2-2.34 0-1.61 1.12-2.37 2.18-2.37 1.23 0 1.78.75 1.95 1.43l1.3-.41c-.28-1.15-1.29-2.35-3.25-2.35-1.9 0-3.61 1.44-3.61 3.7 0 2.26 1.65 3.69 3.63 3.69Z" fill-rule="evenodd" fill-opacity=".5" /></symbol><symbol viewBox="0 0 18 18" id="plyr-captions-on"><path d="M1 1c-.6 0-1 .4-1 1v11c0 .6.4 1 1 1h4.6l2.7 2.7c.2.2.4.3.7.3.3 0 .5-.1.7-.3l2.7-2.7H17c.6 0 1-.4 1-1V2c0-.6-.4-1-1-1H1Zm4.52 10.15c1.99 0 3.01-1.32 3.28-2.41l-1.29-.39c-.19.66-.78 1.45-1.99 1.45-1.14 0-2.2-.83-2.2-2.34 0-1.61 1.12-2.37 2.18-2.37 1.23 0 1.78.75 1.95 1.43l1.3-.41C8.47 4.96 7.46 3.76 5.5 3.76c-1.9 0-3.61 1.44-3.61 3.7 0 2.26 1.65 3.69 3.63 3.69Zm7.57 0c1.99 0 3.01-1.32 3.28-2.41l-1.29-.39c-.19.66-.78 1.45-1.99 1.45-1.14 0-2.2-.83-2.2-2.34 0-1.61 1.12-2.37 2.18-2.37 1.23 0 1.78.75 1.95 1.43l1.3-.41c-.28-1.15-1.29-2.35-3.25-2.35-1.9 0-3.61 1.44-3.61 3.7 0 2.26 1.65 3.69 3.63 3.69Z" fill-rule="evenodd" /></symbol><symbol viewBox="0 0 18 18" id="plyr-download"><path d="M9 13c.3 0 .5-.1.7-.3L15.4 7 14 5.6l-4 4V1H8v8.6l-4-4L2.6 7l5.7 5.7c.2.2.4.3.7.3ZM2 15h14v2H2z" /></symbol><symbol viewBox="0 0 18 18" id="plyr-enter-fullscreen"><path d="M10 3h3.6l-4 4L11 8.4l4-4V8h2V1h-7zM7 9.6l-4 4V10H1v7h7v-2H4.4l4-4z" /></symbol><symbol viewBox="0 0 18 18" id="plyr-exit-fullscreen"><path d="M1 12h3.6l-4 4L2 17.4l4-4V17h2v-7H1zM16 .6l-4 4V1h-2v7h7V6h-3.6l4-4z" /></symbol><symbol viewBox="0 0 18 18" id="plyr-fast-forward"><path d="M7.875 7.171 0 1v16l7.875-6.171V17L18 9 7.875 1z" /></symbol><symbol viewBox="0 0 18 18" id="plyr-logo-vimeo"><path d="M17 5.3c-.1 1.6-1.2 3.7-3.3 6.4-2.2 2.8-4 4.2-5.5 4.2-.9 0-1.7-.9-2.4-2.6C5 10.9 4.4 6 3 6c-.1 0-.5.3-1.2.8l-.8-1c.8-.7 3.5-3.4 4.7-3.5 1.2-.1 2 .7 2.3 2.5.3 2 .8 6.1 1.8 6.1.9 0 2.5-3.4 2.6-4 .1-.9-.3-1.9-2.3-1.1.8-2.6 2.3-3.8 4.5-3.8 1.7.1 2.5 1.2 2.4 3.3Z" /></symbol><symbol viewBox="0 0 18 18" id="plyr-logo-youtube"><path d="M16.8 5.8c-.2-1.3-.8-2.2-2.2-2.4C12.4 3 9 3 9 3s-3.4 0-5.6.4C2 3.6 1.3 4.5 1.2 5.8 1 7.1 1 9 1 9s0 1.9.2 3.2c.2 1.3.8 2.2 2.2 2.4C5.6 15 9 15 9 15s3.4 0 5.6-.4c1.4-.3 2-1.1 2.2-2.4.2-1.3.2-3.2.2-3.2s0-1.9-.2-3.2ZM7 12V6l5 3-5 3Z" /></symbol><symbol viewBox="0 0 18 18" id="plyr-muted"><path d="m12.4 12.5 2.1-2.1 2.1 2.1 1.4-1.4L15.9 9 18 6.9l-1.4-1.4-2.1 2.1-2.1-2.1L11 6.9 13.1 9 11 11.1zM3.786 6.008H.714C.286 6.008 0 6.31 0 6.76v4.512c0 .452.286.752.714.752h3.072l4.071 3.858c.5.3 1.143 0 1.143-.602V2.752c0-.601-.643-.977-1.143-.601L3.786 6.008Z" /></symbol><symbol viewBox="0 0 18 18" id="plyr-pause"><path d="M6 1H3c-.6 0-1 .4-1 1v14c0 .6.4 1 1 1h3c.6 0 1-.4 1-1V2c0-.6-.4-1-1-1ZM12 1c-.6 0-1 .4-1 1v14c0 .6.4 1 1 1h3c.6 0 1-.4 1-1V2c0-.6-.4-1-1-1h-3Z" /></symbol><symbol viewBox="0 0 18 18" id="plyr-pip"><path d="M13.293 3.293 7.022 9.564l1.414 1.414 6.271-6.271L17 7V1h-6z" /><path d="M13 15H3V5h5V3H2a1 1 0 0 0-1 1v12a1 1 0 0 0 1 1h12a1 1 0 0 0 1-1v-6h-2v5Z" /></symbol><symbol viewBox="0 0 29 38" id="plyr-play"><path d="M2.19.6a3.12 3.12 0 0 1 3.25.23l21.88 15.63A3.07 3.07 0 0 1 28.63 19a3.11 3.11 0 0 1-1.31 2.55L5.44 37.17A3.12 3.12 0 0 1 .5 34.63V3.38A3.12 3.12 0 0 1 2.19.6Z" fill="#fff" /></symbol><symbol viewBox="0 0 18 18" id="plyr-restart"><path d="m9.7 1.2.7 6.4 2.1-2.1c1.9 1.9 1.9 5.1 0 7-.9 1-2.2 1.5-3.5 1.5-1.3 0-2.6-.5-3.5-1.5-1.9-1.9-1.9-5.1 0-7 .6-.6 1.4-1.1 2.3-1.3l-.6-1.9C6 2.6 4.9 3.2 4 4.1 1.3 6.8 1.3 11.2 4 14c1.3 1.3 3.1 2 4.9 2 1.9 0 3.6-.7 4.9-2 2.7-2.7 2.7-7.1 0-9.9L16 1.9l-6.3-.7Z" /></symbol><symbol viewBox="0 0 18 18" id="plyr-rewind"><path d="M10.125 1 0 9l10.125 8v-6.171L18 17V1l-7.875 6.171z" /></symbol><symbol viewBox="0 0 18 18" id="plyr-settings"><path d="M16.135 7.784a2 2 0 0 1-1.23-2.969c.322-.536.225-.998-.094-1.316l-.31-.31c-.318-.318-.78-.415-1.316-.094a2 2 0 0 1-2.969-1.23C10.065 1.258 9.669 1 9.219 1h-.438c-.45 0-.845.258-.997.865a2 2 0 0 1-2.969 1.23c-.536-.322-.999-.225-1.317.093l-.31.31c-.318.318-.415.781-.093 1.317a2 2 0 0 1-1.23 2.969C1.26 7.935 1 8.33 1 8.781v.438c0 .45.258.845.865.997a2 2 0 0 1 1.23 2.969c-.322.536-.225.998.094 1.316l.31.31c.319.319.782.415 1.316.094a2 2 0 0 1 2.969 1.23c.151.607.547.865.997.865h.438c.45 0 .845-.258.997-.865a2 2 0 0 1 2.969-1.23c.535.321.997.225 1.316-.094l.31-.31c.318-.318.415-.781.094-1.316a2 2 0 0 1 1.23-2.969c.607-.151.865-.547.865-.997v-.438c0-.451-.26-.846-.865-.997ZM9 12a3 3 0 1 1 0-6 3 3 0 0 1 0 6Z" /></symbol><symbol viewBox="0 0 18 18" id="plyr-volume"><path d="M15.6 3.3c-.4-.4-1-.4-1.4 0-.4.4-.4 1 0 1.4C15.4 5.9 16 7.4 16 9c0 1.6-.6 3.1-1.8 4.3-.4.4-.4 1 0 1.4.2.2.5.3.7.3.3 0 .5-.1.7-.3C17.1 13.2 18 11.2 18 9s-.9-4.2-2.4-5.7Z" /><path d="M11.282 5.282a.909.909 0 0 0 0 1.316c.735.735.995 1.458.995 2.402 0 .936-.425 1.917-.995 2.487a.909.909 0 0 0 0 1.316c.145.145.636.262 1.018.156a.725.725 0 0 0 .298-.156C13.773 11.733 14.13 10.16 14.13 9c0-.17-.002-.34-.011-.51-.053-.992-.319-2.005-1.522-3.208a.909.909 0 0 0-1.316 0ZM3.786 6.008H.714C.286 6.008 0 6.31 0 6.76v4.512c0 .452.286.752.714.752h3.072l4.071 3.858c.5.3 1.143 0 1.143-.602V2.752c0-.601-.643-.977-1.143-.601L3.786 6.008Z" /></symbol><symbol viewBox="0 0 28 28" id="right"><path d="m25 14-9.09 9.09-3.03-3.03L18.94 14l-6.06-6.06 3.03-3.03L25 14Z" /><path d="M3 12h16v4H3z" /></symbol><symbol viewBox="0 0 28 28" id="right_mini"><path d="M11.03 4.91 8 7.94 14.06 14 8 20.06l3.03 3.03L20.12 14l-9.09-9.09Z" /></symbol><symbol viewBox="0 0 22 22" id="slack"><defs></defs><g clip-path="url(#slack_a)"><path d="M4.62 13.9c0 .61-.24 1.2-.68 1.63-.43.43-1.02.68-1.63.68A2.318 2.318 0 0 1 0 13.9a2.318 2.318 0 0 1 2.31-2.31h2.31v2.31Zm1.17 0a2.318 2.318 0 0 1 2.31-2.31 2.318 2.318 0 0 1 2.31 2.31v5.79A2.318 2.318 0 0 1 8.1 22a2.318 2.318 0 0 1-2.31-2.31V13.9ZM8.1 4.62a2.318 2.318 0 0 1-2.31-2.31A2.318 2.318 0 0 1 8.1 0a2.318 2.318 0 0 1 2.31 2.31v2.31H8.1Zm0 1.17a2.318 2.318 0 0 1 2.31 2.31 2.318 2.318 0 0 1-2.31 2.31H2.31A2.318 2.318 0 0 1 0 8.1a2.318 2.318 0 0 1 2.31-2.31H8.1Zm9.28 2.31a2.318 2.318 0 0 1 2.31-2.31A2.318 2.318 0 0 1 22 8.1a2.318 2.318 0 0 1-2.31 2.31h-2.31V8.1Zm-1.16 0a2.318 2.318 0 0 1-2.31 2.31A2.318 2.318 0 0 1 11.6 8.1V2.31c0-.61.24-1.2.68-1.63C12.71.25 13.3 0 13.91 0a2.318 2.318 0 0 1 2.31 2.31V8.1Zm-2.31 9.28a2.318 2.318 0 0 1 2.31 2.31A2.318 2.318 0 0 1 13.91 22a2.318 2.318 0 0 1-2.31-2.31v-2.31h2.31Zm0-1.16a2.318 2.318 0 0 1-2.31-2.31 2.318 2.318 0 0 1 2.31-2.31h5.79c.61 0 1.2.24 1.63.68.43.43.68 1.02.68 1.63a2.318 2.318 0 0 1-2.31 2.31h-5.79Z" /></g></symbol><clipPath id="slack_a"><path fill="none" d="M0 0h22v22H0z" /></clipPath><symbol viewBox="0 0 24 24" fill="none" id="sofa"><path fill-rule="evenodd" clip-rule="evenodd" d="m5 21 1-2H4v2h1Zm15 0v-2h-2l1 2h1ZM2 8.8c0-1.68 0-2.52.327-3.162a3 3 0 0 1 1.311-1.311C4.28 4 5.12 4 6.8 4h10.4c1.68 0 2.52 0 3.162.327a3 3 0 0 1 1.311 1.311C22 6.28 22 7.12 22 8.8v3.979a29 29 0 0 0-20 0V8.8Zm0 6.12V19h20v-4.08a27 27 0 0 0-20 0Z" fill="currentColor" /><path fill-rule="evenodd" clip-rule="evenodd" d="M1.81 11h2.187l1 8H2.411c-.5 0-.75 0-.95-.093a1 1 0 0 1-.427-.377c-.117-.187-.148-.435-.21-.931l-.602-4.8c-.078-.622-.117-.932-.02-1.174a1 1 0 0 1 .44-.498C.87 11 1.183 11 1.81 11Zm20.377 0h-2.188L19 19h2.588c.5 0 .75 0 .95-.093a1 1 0 0 0 .427-.377c.117-.187.148-.436.21-.932l.6-4.8c.077-.621.116-.932.019-1.173a1 1 0 0 0-.44-.498C23.125 11 22.813 11 22.186 11Z" fill="currentColor" /></symbol><symbol viewBox="0 0 24 24" fill="none" id="study"><path fill-rule="evenodd" clip-rule="evenodd" d="M4 5a3 3 0 0 1 3-3h13v20H7a3 3 0 0 1-3-3V5Zm2 14a1 1 0 0 0 1 1h11v-2H7a1 1 0 0 0-1 1ZM8 6v2h8V6H8Zm0 4h5v2H8v-2Z" fill="currentColor" /></symbol><symbol viewBox="0 0 24 24" id="tel"><defs></defs><g clip-path="url(#tel_a)"><path d="M18.25 15.88c-.78-.77-1.76-.77-2.54 0-.59.59-1.19 1.18-1.77 1.78-.16.16-.29.2-.49.09-.38-.21-.79-.38-1.16-.61-1.72-1.08-3.17-2.48-4.44-4.05-.63-.78-1.2-1.61-1.59-2.55-.08-.19-.06-.31.09-.47.59-.57 1.17-1.16 1.76-1.75.81-.82.81-1.78 0-2.6-.46-.47-.93-.93-1.39-1.4-.48-.48-.95-.96-1.44-1.44-.78-.76-1.76-.76-2.54 0-.6.59-1.17 1.19-1.78 1.77-.6.54-.88 1.19-.94 1.96-.09 1.24.21 2.42.64 3.56.88 2.37 2.22 4.47 3.84 6.4 2.19 2.61 4.81 4.67 7.87 6.16 1.38.67 2.81 1.18 4.36 1.27 1.07.06 2-.21 2.74-1.04.51-.57 1.08-1.09 1.62-1.63.8-.81.8-1.79.01-2.59-.95-.95-1.9-1.9-2.86-2.85ZM17.29 11.89l1.84-.31a8.226 8.226 0 0 0-2.3-4.44 8.213 8.213 0 0 0-4.69-2.34l-.26 1.85a6.387 6.387 0 0 1 5.42 5.25ZM20.17 3.89A13.532 13.532 0 0 0 12.38 0l-.26 1.85c2.57.36 4.89 1.52 6.73 3.36 1.74 1.74 2.89 3.95 3.3 6.37l1.84-.31c-.48-2.81-1.81-5.35-3.83-7.38Z" /></g></symbol><clipPath id="tel_a"><path fill="none" d="M0 0h24v24H0z" /></clipPath><symbol fill="none" viewBox="0 0 64 64" id="tree"><path fill-rule="evenodd" clip-rule="evenodd" d="M32 0A32.037 32.037 0 0 0 0 32a32.036 32.036 0 0 0 32 32 32.036 32.036 0 0 0 32-32A32.036 32.036 0 0 0 32 0Zm14.877 55.776c-.16-.058-.301-.128-.301-.18a.515.515 0 0 0-.451-.56c-.122 0-.434-.1-.753-.201-.334-.107-.676-.215-.816-.215a.524.524 0 0 0-.347.137c-.019-.017-.05-.042-.09-.072-.16-.126-.44-.346-.44-.467a.686.686 0 0 0-.602-.747c-.164 0-.439-.086-.713-.173-.275-.086-.55-.173-.716-.173-.164 0-.99-.376-1.816-.752-.83-.379-1.663-.758-1.83-.758a.539.539 0 0 0-.407.198.59.59 0 0 0-.518-.37.294.294 0 0 1-.23-.286.685.685 0 0 0-.599-.746c-.096 0-.262-.092-.445-.194-.227-.127-.48-.268-.663-.268-.01 0-.08-.052-.185-.13-.314-.235-.942-.702-1.19-.702a3.169 3.169 0 0 1-.797-.349c-.154-3.462-.5-6.255-.73-8.103-.057-.461-.107-.864-.145-1.203-.096-.861-.16-1.33-.16-1.33-.127-.817-.22-1.846-.29-3.024-.407-6.856-.005-18.784.24-23.95a176.8 176.8 0 0 1 .102-2.01l.004-.055c0-.082.006-.154.011-.205l.007-.144c-.365.664-.58 1.4-.633 2.155a108.092 108.092 0 0 0-1.427 13.532c-.077 1.509-.119 2.943-.143 4.28a77.057 77.057 0 0 0 .25 8.909l.168 2.336v.009l.001.007v.005c.198 2.767.401 5.604.677 8.97l-.01.004a4.18 4.18 0 0 0-.32.126c-.515.217-1.077.532-1.143.765-.05.172-.22.361-.356.361-.172 0-.503.416-.727.698-.115.145-.202.254-.225.254a2.51 2.51 0 0 0-1.317 1.147 1.285 1.285 0 0 1-.787.54c-.166 0-.406.186-.647.373-.24.186-.48.373-.646.373-.106 0-.352.051-.62.107-.317.066-.665.138-.842.138a.602.602 0 0 0-.539.416 1.281 1.281 0 0 0-.863-.298c-.386 0-.849.244-1.161.408-.16.084-.28.147-.33.147a.508.508 0 0 0-.3.101.509.509 0 0 0-.3-.1.462.462 0 0 0-.086.009.463.463 0 0 0-.084-.01c-.186 0-.541.324-.857.613-.253.23-.481.438-.576.438a2.818 2.818 0 0 0-.722.266h-.253A28.065 28.065 0 0 1 3.937 32 28.094 28.094 0 0 1 31.998 3.938 28.094 28.094 0 0 1 60.063 32a28.06 28.06 0 0 1-13.185 23.776ZM28.07 32.462a9.562 9.562 0 0 0-5.51-4.055c-.28-.09-.573-.171-.879-.247 0 0-4.168-.98-5.876-.832l.083.037c.095.043.232.123.43.238.287.167.7.407 1.293.713a41.692 41.692 0 0 1 6.51 4.124c.502.398.998.76 1.475 1.107 1.727 1.26 3.2 2.333 3.79 4.236a15.316 15.316 0 0 0-.447-3.473 9.301 9.301 0 0 0-.869-1.848Zm12.098-16.664a26.253 26.253 0 0 0-4.34 2.193 9.226 9.226 0 0 0-3.635 3.769c.041-.548.355-2.974 1.154-3.992a6.027 6.027 0 0 1 3.707-2.212c.182-.04.37-.074.567-.1a20.223 20.223 0 0 1 3.887-.155l-.055.017-.006.002c-.157.055-.628.217-1.279.478Zm-6.513 21.968c.095-.13.19-.263.287-.399.181-.255.368-.518.575-.776.104-.119.206-.242.309-.366.225-.271.453-.547.714-.798l.556-.572.595-.538c.259-.248.54-.468.822-.688l.072-.057.322-.251.017-.013a.044.044 0 0 1 .007-.007c.002 0 .003-.002.005-.003l.002-.001.075-.057c.117-.089.234-.177.353-.262.403-.279.808-.545 1.218-.773.048-.028.098-.055.148-.08l.05-.027.017-.01.022-.011.003-.002.002-.001a.047.047 0 0 0 .007-.005l.036-.018c.14-.077.279-.15.418-.219l.17-.09c.338-.171.668-.314.983-.442a13.295 13.295 0 0 0-4.703 1.295c-.38.227-.746.475-1.098.743a7.815 7.815 0 0 0-2.587 3.11 5.705 5.705 0 0 0-.403 1.408c.037.532.087 1 .15 1.394l.092-.187.085-.173c.21-.355.433-.729.679-1.124Zm9.108-6.762a5.59 5.59 0 0 1 1.391-.11l.07.004a3.394 3.394 0 0 0-2.032 1.555 15.261 15.261 0 0 1-3.178 4.625 14.402 14.402 0 0 1-3.367 2.473c-.853.462-1.76.819-2.698 1.063a20.16 20.16 0 0 0 .066-.206l.02-.05c.013-.03.025-.062.041-.094l.416-.969c.183-.34.382-.71.59-1.101.087-.131.174-.267.262-.405.16-.251.325-.51.508-.765.098-.124.195-.253.292-.383.2-.269.404-.543.64-.796l.512-.582.552-.553a9.93 9.93 0 0 1 .757-.7c.134-.115.268-.23.398-.35.137-.103.272-.209.406-.314.266-.21.53-.418.806-.593l.219-.15c.127-.088.254-.175.381-.254l.598-.354c.39-.224.775-.41 1.133-.574.313-.129.599-.246.87-.33l.347-.087ZM27.873 15.191a8.452 8.452 0 0 0-.735-.497 8.882 8.882 0 0 0-3.147-.866c.21.085.43.18.658.295l.114.06c.092.046.186.096.279.146.007.005.015.01.024.014l.008.004.154.085c.275.154.546.332.816.518.096.07.19.14.286.214l.01.007.01.007c.063.045.118.09.174.136l.041.034c.208.156.408.322.6.498l.399.359.157.164.213.22c.167.161.313.337.457.51.076.092.152.183.23.27.141.179.27.36.396.537l.179.25c.057.093.142.251.23.415.074.138.15.28.213.388l.122-1.154-.017-.06a6.21 6.21 0 0 0-.145-.471 5.223 5.223 0 0 0-1.726-2.083Zm1.345 3.937a128.892 128.892 0 0 1 .317.74l.017.053c.013.04.022.07.028.085a7.881 7.881 0 0 1-1.806-.71 9.548 9.548 0 0 1-2.251-1.656 10.206 10.206 0 0 1-2.129-3.093 2.27 2.27 0 0 0-1.36-1.043h.047a3.63 3.63 0 0 1 .931.075c.077.017.154.037.231.057.173.054.354.127.55.208l.034.013a9.541 9.541 0 0 1 1.158.622c.09.055.179.117.27.18l.131.09c.187.119.365.259.544.4.089.07.177.14.268.207.088.081.18.16.271.24.172.148.345.297.502.463l.37.37.342.39c.155.165.29.347.423.524.067.09.134.178.202.264.121.17.23.34.337.507.06.094.118.186.177.276l.396.738Z" fill="currentCOlor" /></symbol><symbol viewBox="0 0 22 18" id="twitter"><path d="M22 2.14a9.09 9.09 0 0 1-2.59.72 4.58 4.58 0 0 0 2-2.51 9.38 9.38 0 0 1-2.87 1.09 4.47 4.47 0 0 0-5.42-.9 4.54 4.54 0 0 0-2.26 5A12.73 12.73 0 0 1 1.5.84a4.62 4.62 0 0 0-.61 2.29 4.55 4.55 0 0 0 2 3.78 4.4 4.4 0 0 1-2-.57v.06a4.56 4.56 0 0 0 1 2.87 4.48 4.48 0 0 0 2.59 1.58 4.59 4.59 0 0 1-2 .08 4.52 4.52 0 0 0 4.22 3.15A9 9 0 0 1 1.07 16 9.59 9.59 0 0 1 0 16 12.82 12.82 0 0 0 19.76 5.1v-.59A9.15 9.15 0 0 0 22 2.16Z" fill="currentColor" /></symbol><symbol viewBox="0 0 310 310" id="youtube"><path fill="currentColor" d="M297.917 64.645c-11.19-13.302-31.85-18.728-71.306-18.728H83.386c-40.359 0-61.369 5.776-72.517 19.938C0 79.663 0 100.008 0 128.166v53.669c0 54.551 12.896 82.248 83.386 82.248h143.226c34.216 0 53.176-4.788 65.442-16.527C304.633 235.518 310 215.863 310 181.835v-53.669c0-29.695-.841-50.16-12.083-63.521zm-98.896 97.765-65.038 33.991a9.997 9.997 0 0 1-14.632-8.863v-67.764a10 10 0 0 1 14.609-8.874l65.038 33.772a10 10 0 0 1 .023 17.738z" /></symbol></defs><use id="arrow_45deg-usage" xlink:href="#arrow_45deg" class="sprite-symbol-usage" /><use id="arrow_down-usage" xlink:href="#arrow_down" class="sprite-symbol-usage" /><use id="arrow_left-usage" xlink:href="#arrow_left" class="sprite-symbol-usage" /><use id="arrow_r-usage" xlink:href="#arrow_r" class="sprite-symbol-usage" /><use id="arrow_right-usage" xlink:href="#arrow_right" class="sprite-symbol-usage" /><use id="arrow_top-usage" xlink:href="#arrow_top" class="sprite-symbol-usage" /><use id="arrow_top_r-usage" xlink:href="#arrow_top_r" class="sprite-symbol-usage" /><use id="bag-usage" xlink:href="#bag" class="sprite-symbol-usage" /><use id="bag-active-usage" xlink:href="#bag-active" class="sprite-symbol-usage" /><use id="bathroom-usage" xlink:href="#bathroom" class="sprite-symbol-usage" /><use id="bedroom-usage" xlink:href="#bedroom" class="sprite-symbol-usage" /><use id="calendar-usage" xlink:href="#calendar" class="sprite-symbol-usage" /><use id="cart-usage" xlink:href="#cart" class="sprite-symbol-usage" /><use id="cart_2-usage" xlink:href="#cart_2" class="sprite-symbol-usage" /><use id="chair-usage" xlink:href="#chair" class="sprite-symbol-usage" /><use id="dining-usage" xlink:href="#dining" class="sprite-symbol-usage" /><use id="facebook-usage" xlink:href="#facebook" class="sprite-symbol-usage" /><use id="ft-usage" xlink:href="#ft" class="sprite-symbol-usage" /><use id="garage-usage" xlink:href="#garage" class="sprite-symbol-usage" /><use id="home-usage" xlink:href="#home" class="sprite-symbol-usage" /><use id="instagram-usage" xlink:href="#instagram" class="sprite-symbol-usage" /><use id="iso-usage" xlink:href="#iso" class="sprite-symbol-usage" /><use id="kitchen-usage" xlink:href="#kitchen" class="sprite-symbol-usage" /><use id="left-usage" xlink:href="#left" class="sprite-symbol-usage" /><use id="left_mini-usage" xlink:href="#left_mini" class="sprite-symbol-usage" /><use id="link_icon-usage" xlink:href="#link_icon" class="sprite-symbol-usage" /><use id="linkedin-usage" xlink:href="#linkedin" class="sprite-symbol-usage" /><use id="living-usage" xlink:href="#living" class="sprite-symbol-usage" /><use id="pinterest-usage" xlink:href="#pinterest" class="sprite-symbol-usage" /><use id="play-usage" xlink:href="#play" class="sprite-symbol-usage" /><use id="plyr-airplay-usage" xlink:href="#plyr-airplay" class="sprite-symbol-usage" /><use id="plyr-captions-off-usage" xlink:href="#plyr-captions-off" class="sprite-symbol-usage" /><use id="plyr-captions-on-usage" xlink:href="#plyr-captions-on" class="sprite-symbol-usage" /><use id="plyr-download-usage" xlink:href="#plyr-download" class="sprite-symbol-usage" /><use id="plyr-enter-fullscreen-usage" xlink:href="#plyr-enter-fullscreen" class="sprite-symbol-usage" /><use id="plyr-exit-fullscreen-usage" xlink:href="#plyr-exit-fullscreen" class="sprite-symbol-usage" /><use id="plyr-fast-forward-usage" xlink:href="#plyr-fast-forward" class="sprite-symbol-usage" /><use id="plyr-logo-vimeo-usage" xlink:href="#plyr-logo-vimeo" class="sprite-symbol-usage" /><use id="plyr-logo-youtube-usage" xlink:href="#plyr-logo-youtube" class="sprite-symbol-usage" /><use id="plyr-muted-usage" xlink:href="#plyr-muted" class="sprite-symbol-usage" /><use id="plyr-pause-usage" xlink:href="#plyr-pause" class="sprite-symbol-usage" /><use id="plyr-pip-usage" xlink:href="#plyr-pip" class="sprite-symbol-usage" /><use id="plyr-play-usage" xlink:href="#plyr-play" class="sprite-symbol-usage" /><use id="plyr-restart-usage" xlink:href="#plyr-restart" class="sprite-symbol-usage" /><use id="plyr-rewind-usage" xlink:href="#plyr-rewind" class="sprite-symbol-usage" /><use id="plyr-settings-usage" xlink:href="#plyr-settings" class="sprite-symbol-usage" /><use id="plyr-volume-usage" xlink:href="#plyr-volume" class="sprite-symbol-usage" /><use id="right-usage" xlink:href="#right" class="sprite-symbol-usage" /><use id="right_mini-usage" xlink:href="#right_mini" class="sprite-symbol-usage" /><use id="slack-usage" xlink:href="#slack" class="sprite-symbol-usage" /><use id="sofa-usage" xlink:href="#sofa" class="sprite-symbol-usage" /><use id="study-usage" xlink:href="#study" class="sprite-symbol-usage" /><use id="tel-usage" xlink:href="#tel" class="sprite-symbol-usage" /><use id="tree-usage" xlink:href="#tree" class="sprite-symbol-usage" /><use id="twitter-usage" xlink:href="#twitter" class="sprite-symbol-usage" /><use id="youtube-usage" xlink:href="#youtube" class="sprite-symbol-usage" /></svg>